HIERARCHY
ROOT Hips
{
	OFFSET -3.958830 18.904000 13.208200
	CHANNELS 6 Xposition Yposition Zposition Zrotation Yrotation Xrotation 
	JOINT LHipJoint
	{
		OFFSET 0.000000 0.000000 0.000000
		CHANNELS 3 Zrotation Yrotation Xrotation
		JOINT LeftUpLeg
		{
			OFFSET 1.800000 -1.400000 0.085000
			CHANNELS 3 Zrotation Yrotation Xrotation
			JOINT LeftLeg
			{
				OFFSET 2.215000 -6.000000 0.000000
				CHANNELS 3 Zrotation Yrotation Xrotation
				JOINT LeftFoot
				{
					OFFSET 2.500000 -6.900000 0.000000
					CHANNELS 3 Zrotation Yrotation Xrotation
					JOINT LeftToeBase
					{
						OFFSET 0.200000 -0.500000 1.950000
						CHANNELS 3 Zrotation Yrotation Xrotation
						End Site
						{
							OFFSET 0.000000 0.000000 0.000000
						}
					}
				}
			}
		}
	}
	JOINT RHipJoint
	{
		OFFSET 0.000000 0.000000 0.000000
		CHANNELS 3 Zrotation Yrotation Xrotation
		JOINT RightUpLeg
		{
			OFFSET -1.800000 -1.400000 0.085000
			CHANNELS 3 Zrotation Yrotation Xrotation
			JOINT RightLeg
			{
				OFFSET -2.215000 -6.000000 0.000000
				CHANNELS 3 Zrotation Yrotation Xrotation
				JOINT RightFoot
				{
					OFFSET -2.500000 -6.900000 0.000000
					CHANNELS 3 Zrotation Yrotation Xrotation
					JOINT RightToeBase
					{
						OFFSET -0.200000 -0.500000 1.950000
						CHANNELS 3 Zrotation Yrotation Xrotation
						End Site
						{
							OFFSET 0.000000 0.000000 0.000000
						}
					}
				}
			}
		}
	}
	JOINT LowerBack
	{
		OFFSET 0.000000 0.000000 0.000000
		CHANNELS 3 Zrotation Yrotation Xrotation
		JOINT Spine
		{
			OFFSET -0.087000 1.940000 -0.288900
			CHANNELS 3 Zrotation Yrotation Xrotation
			JOINT Spine1
			{
				OFFSET 0.000000 1.950000 0.060000
				CHANNELS 3 Zrotation Yrotation Xrotation
				JOINT Neck
				{
					OFFSET 0.000000 0.000000 0.000000
					CHANNELS 3 Zrotation Yrotation Xrotation
					JOINT Neck1
					{
						OFFSET 0.000000 1.600000 0.340000
						CHANNELS 3 Zrotation Yrotation Xrotation
						JOINT Head
						{
							OFFSET 0.000000 1.667000 -0.240000
							CHANNELS 3 Zrotation Yrotation Xrotation
							End Site
							{
								OFFSET 0.000000 0.000000 0.000000
							}
						}
					}
				}
				JOINT LeftShoulder
				{
					OFFSET 0.000000 0.000000 0.000000
					CHANNELS 3 Zrotation Yrotation Xrotation
					JOINT LeftArm
					{
						OFFSET 2.700000 1.550000 -0.730000
						CHANNELS 3 Zrotation Yrotation Xrotation
						JOINT LeftForeArm
						{
							OFFSET 5.450000 0.000000 0.000000
							CHANNELS 3 Zrotation Yrotation Xrotation
							JOINT LeftHand
							{
								OFFSET 3.450000 0.000000 0.000000
								CHANNELS 3 Zrotation Yrotation Xrotation
								JOINT LeftHandIndex1
								{
									OFFSET 0.750000 0.000000 0.000000
									CHANNELS 3 Zrotation Yrotation Xrotation
									End Site
									{
										OFFSET 0.000000 0.000000 0.000000
									}
								}
							}
						}
					}
				}
				JOINT RightShoulder
				{
					OFFSET 0.000000 0.000000 0.000000
					CHANNELS 3 Zrotation Yrotation Xrotation
					JOINT RightArm
					{
						OFFSET -2.700000 1.550000 -0.730000
						CHANNELS 3 Zrotation Yrotation Xrotation
						JOINT RightForeArm
						{
							OFFSET -5.450000 0.000000 0.000000
							CHANNELS 3 Zrotation Yrotation Xrotation
							JOINT RightHand
							{
								OFFSET -3.450000 0.000000 0.000000
								CHANNELS 3 Zrotation Yrotation Xrotation
								JOINT RightHandIndex1
								{
									OFFSET -0.750000 0.000000 0.000000
									CHANNELS 3 Zrotation Yrotation Xrotation
									End Site
									{
										OFFSET 0.000000 0.000000 0.000000
									}
								}
							}
						}
					}
				}
			}
		}
	}
}
MOTION
Frames: 13
Frame Time: 0.016667
-1.817760 16.253150 -1.757680 -2.508654 14.553655 5.167194 -15.065221 12.193845 2.237634 14.168322 -0.452990 -21.031704 -0.956320 4.121866 10.300893 -0.338597 3.132969 3.452490 0.219060 0.227090 -0.009760 18.357746 -11.210087 3.394335 -14.993603 1.774821 -3.663337 9.433498 -3.619886 -2.067866 -0.290472 -4.756036 2.772320 0.285300 0.334840 0.128260 -4.063263 1.303678 -7.201186 7.979783 2.057165 3.587111 -10.073470 4.156370 10.786927 11.624789 -2.003981 -10.233035 -1.956385 -3.080214 26.534063 -1.952070 -4.883820 -4.175960 -14.855084 -6.231546 4.764242 -55.616672 2.142627 -3.528320 -1.178748 -5.001479 -0.672377 -4.077533 3.048069 -0.151570 0.258270 -0.203780 0.171050 -7.302043 13.479189 4.196386 -16.103412 22.671223 -2.473498 -15.658206 20.689154 -2.102934 2.352536 -1.846250 -0.058960 0.155680 -0.002050 0.084730 
-1.801650 16.257930 -1.773950 -2.355426 14.394519 5.076863 -15.067233 12.268025 2.239039 13.666802 -0.566165 -21.110519 -0.608673 4.076543 10.855208 -0.360196 3.106495 3.459896 0.230680 0.236720 0.008230 18.338051 -11.251208 3.361130 -15.353271 1.787846 -4.043444 9.256433 -3.695561 -1.407519 -0.275509 -4.711358 2.775342 0.295020 0.324070 0.130130 -4.043939 1.236922 -7.196701 8.148319 1.922823 3.903301 -10.537949 4.151370 10.824217 11.876520 -2.026312 -10.224519 -2.017177 -3.181593 26.548979 -2.368480 -4.846180 -4.449370 -15.488263 -6.729813 4.770455 -54.786271 1.358587 -2.890468 -0.598555 -4.403683 -0.612746 -4.080407 3.048651 -0.143810 0.255750 -0.197010 0.167150 -7.193619 13.963285 4.151524 -16.391332 22.416232 -2.578249 -15.518049 21.945353 -2.103266 2.333006 -1.857318 -0.061000 0.156990 -0.005780 0.075880 
-1.768740 16.254740 -1.790950 -1.981593 13.972259 4.991682 -15.070202 12.389648 2.247683 12.763427 -0.785666 -21.196180 -0.048234 3.994877 11.768588 -0.396568 3.071063 3.471026 0.248820 0.253720 0.026680 18.307131 -11.330140 3.280872 -16.015327 1.770002 -4.734543 8.811287 -3.842326 -0.088365 -0.241708 -4.632415 2.784942 0.314730 0.316400 0.129400 -4.009874 1.125468 -7.170292 8.249737 1.746169 4.311008 -11.453918 4.200615 11.002780 12.217966 -1.951867 -10.310899 -1.918007 -3.306835 26.245635 -2.543780 -4.868320 -4.886080 -16.146994 -7.636140 4.802847 -53.016046 -0.216658 -1.862903 -0.344818 -4.049070 -0.560244 -4.078573 3.058988 -0.135840 0.254880 -0.194840 0.164410 -7.265331 14.758376 4.214180 -16.401111 21.916442 -2.471802 -14.845561 22.607255 -1.961869 2.307135 -1.867936 -0.067050 0.163150 -0.008470 0.065230 
-1.718570 16.251970 -1.814520 -1.793044 13.724638 4.796349 -15.078788 12.529243 2.286869 12.119624 -0.993950 -21.624818 0.348589 4.031537 13.181480 -0.431409 3.103199 3.447040 0.284840 0.295040 0.055320 18.274683 -11.409725 3.153062 -16.360673 1.653911 -5.569122 8.219924 -4.010259 1.669277 -0.208295 -4.509318 2.803030 0.349110 0.304280 0.132870 -3.967425 0.947864 -7.133476 8.514050 1.413082 4.739436 -12.078481 4.063493 11.365691 12.456632 -2.000567 -10.300797 -2.067075 -3.324217 25.924813 -2.614020 -4.929940 -5.780070 -15.949241 -8.487778 4.756097 -51.982958 -2.778329 -0.728720 -1.242749 -4.934894 -0.585869 -4.063438 3.074447 -0.125950 0.250060 -0.182560 0.164940 -7.961076 15.454556 4.079001 -16.261643 21.910514 -2.176003 -13.772855 22.591516 -1.704938 2.278529 -1.871394 -0.066500 0.174930 -0.016660 0.057020 
-1.658580 16.258790 -1.829570 -1.710495 13.392628 4.224619 -15.081835 12.696961 2.344241 11.834217 -1.115723 -21.653370 0.308646 4.203817 14.533936 -0.456860 3.210410 3.394910 0.310740 0.324530 0.084010 18.242160 -11.528164 2.978812 -16.455023 1.436166 -6.402264 7.146796 -4.191467 3.975836 -0.169309 -4.351509 2.837891 0.373850 0.287450 0.133090 -3.933207 0.760125 -7.103539 8.911565 1.069909 5.307776 -12.861358 3.968869 11.956369 12.700946 -1.926305 -10.393821 -2.108375 -3.275200 26.289741 -2.929760 -4.899340 -6.511800 -15.933889 -10.008323 4.912704 -50.362590 -5.849052 0.507152 -2.547172 -6.639340 -0.583130 -4.037505 3.080722 -0.108140 0.243790 -0.166440 0.159140 -8.488040 16.671107 3.927000 -15.568091 22.482780 -1.816424 -12.871319 21.220611 -1.478494 2.268981 -1.833086 -0.069530 0.188360 -0.020540 0.043640 
-1.589810 16.267710 -1.840580 -1.678656 12.568414 3.603276 -15.096931 12.860814 2.392155 11.847777 -1.138979 -21.144622 -0.319478 4.507695 15.391925 -0.454235 3.371469 3.333852 0.324480 0.338770 0.097550 18.203993 -11.591179 2.814637 -16.627423 1.253122 -7.237578 6.198518 -4.315259 6.076535 -0.127417 -4.225314 2.866087 0.388390 0.283880 0.131030 -3.854394 0.493093 -7.071068 9.126128 0.937066 5.664441 -12.821934 3.994820 12.978119 12.721748 -2.418025 -10.757092 -3.176847 -2.935450 26.896310 -3.204000 -4.964980 -6.526320 -14.506081 -11.610741 5.006973 -50.546523 -9.960291 2.230676 -2.653247 -8.241795 -0.530105 -4.029240 3.095251 -0.106570 0.243460 -0.164420 0.158750 -9.875582 18.473744 3.970443 -14.613244 22.896955 -1.307982 -12.505410 18.745120 -1.382914 2.289542 -1.790030 -0.071580 0.197140 -0.023340 0.039840 
-1.517200 16.277490 -1.873340 -1.493839 11.861084 2.661102 -15.140343 13.092695 2.445690 11.471827 -1.207035 -20.832998 -0.540245 4.793060 16.832139 -0.427436 3.534088 3.268734 0.321290 0.342310 0.091500 18.133412 -11.608929 2.656099 -17.003575 1.063066 -7.946196 5.371366 -4.451864 8.263168 -0.083972 -4.126331 2.885282 0.389030 0.277070 0.120070 -3.691822 0.019477 -7.071563 8.950108 0.827638 6.459294 -12.185305 4.085273 14.623844 12.506807 -3.234327 -11.600614 -5.013285 -2.537930 28.183193 -3.304790 -5.305830 -6.095700 -11.741047 -14.126654 5.325504 -51.374470 -15.477560 4.704884 -1.906130 -9.900685 -0.479489 -4.008845 3.117791 -0.113150 0.234980 -0.163510 0.156460 -12.051199 21.467147 4.228681 -13.375689 22.873366 -0.804720 -12.737951 14.832914 -1.433105 2.372961 -1.719922 -0.067750 0.200030 -0.023150 0.046230 
-1.429980 16.280570 -1.884680 -1.259855 11.249853 2.168246 -15.147046 13.218431 2.515901 11.110779 -1.407590 -20.476454 -1.224003 5.110665 17.887417 -0.420294 3.707241 3.206247 0.322030 0.335870 0.103920 18.106581 -11.655076 2.513326 -17.607986 0.885386 -8.922934 4.557442 -4.587164 10.275129 -0.054912 -4.060419 2.894435 0.386370 0.273010 0.123870 -3.641137 -0.231475 -7.060321 8.866510 0.818116 6.869711 -11.951363 4.157558 14.881675 11.894380 -2.817514 -11.730937 -4.715938 -2.406858 29.106935 -3.529210 -5.002800 -5.728860 -11.127830 -16.390385 5.855111 -47.730844 -19.065362 5.813512 -3.249824 -14.195869 -0.276414 -3.977138 3.117239 -0.104130 0.241370 -0.160420 0.152220 -11.583740 22.844673 4.021744 -13.349273 23.211646 -0.844714 -12.980978 13.991609 -1.462451 2.393914 -1.678636 -0.072160 0.197870 -0.023200 0.034430 
-1.345370 16.287950 -1.893550 -0.972012 10.513299 1.438971 -15.150065 13.320314 2.535903 10.635236 -1.504229 -19.554622 -1.752476 5.359614 18.670928 -0.402466 3.839447 3.155822 0.352670 0.377830 0.118180 18.088842 -11.729812 2.385248 -18.274418 0.659301 -9.802920 3.584447 -4.650911 12.128681 -0.044012 -4.022513 2.883645 0.409560 0.261650 0.127320 -3.602336 -0.363466 -7.018499 8.523655 1.123105 7.188234 -11.187569 4.473341 15.510925 11.117791 -2.647598 -11.761083 -4.793343 -2.378058 30.082136 -3.227870 -5.151750 -5.918010 -9.751815 -18.400549 6.099429 -44.795328 -23.518612 6.970159 -1.703374 -19.035269 -0.352579 -3.934003 3.122039 -0.106180 0.234710 -0.146780 0.159870 -11.457175 24.291673 3.718281 -12.476853 24.402665 -0.561040 -13.416669 11.608463 -1.601186 2.459153 -1.642536 -0.057850 0.198710 -0.036930 0.039280 
-1.252250 16.297120 -1.898830 -0.762446 9.437048 0.877531 -15.152485 13.399570 2.558618 10.289075 -1.541864 -18.644600 -2.474085 5.693741 19.399092 -0.380053 4.008940 3.100138 0.379470 0.410870 0.122230 18.078336 -11.788339 2.265995 -18.896793 0.494604 -11.025706 2.683028 -4.686973 14.029799 -0.028309 -3.985533 2.874880 0.431910 0.262470 0.125590 -3.562036 -0.468684 -6.969666 8.223283 1.647388 7.502120 -10.026660 4.967666 15.834409 10.142320 -2.724528 -11.593210 -5.261529 -2.591436 30.552796 -2.725010 -5.634680 -6.083480 -8.332622 -19.106752 5.799014 -42.814955 -27.552623 7.509910 1.298677 -25.403359 -0.929868 -3.874418 3.120248 -0.107900 0.229070 -0.143890 0.174470 -11.010477 24.696553 3.839323 -12.148281 24.373020 -0.760667 -14.715684 11.409547 -1.824734 2.470662 -1.655483 -0.052050 0.206920 -0.048800 0.047060 
-1.156420 16.314320 -1.934260 -0.770523 9.032213 -0.097506 -15.150801 13.522237 2.605178 9.847363 -1.657698 -17.906736 -2.744186 5.870271 20.227033 -0.377196 4.146069 3.047044 0.404640 0.443050 0.138850 18.061753 -11.853208 2.154179 -19.387351 0.280606 -12.228074 1.991609 -4.881087 16.638990 -0.024631 -4.015231 2.835575 0.455540 0.251730 0.126040 -3.539161 -0.659453 -6.988933 8.478109 1.550965 8.608092 -9.478303 5.024852 16.492086 9.435348 -2.776538 -11.543874 -5.741241 -2.576482 31.405282 -2.702840 -5.647270 -6.421140 -7.630629 -20.977445 5.525850 -38.526447 -31.883516 7.852659 7.634051 -28.102368 -2.449158 -3.844431 3.078495 -0.099570 0.224020 -0.131820 0.176710 -10.431395 26.130055 3.932985 -12.651047 24.426239 -1.410459 -16.176464 9.766211 -2.082736 2.516887 -1.653152 -0.049820 0.214980 -0.055500 0.042850 
-1.053360 16.332570 -1.980660 -1.055521 9.145439 -1.192700 -15.138950 13.638522 2.652367 9.551304 -1.804664 -17.259340 -2.834692 5.994553 21.171623 -0.389756 4.290101 2.985456 0.440390 0.485070 0.172500 18.056881 -11.919180 2.063950 -19.455596 0.053168 -13.618583 1.557994 -5.229252 19.896788 -0.041972 -4.121440 2.763719 0.487410 0.235890 0.129370 -3.559097 -0.822796 -7.029663 9.042422 0.932813 9.994263 -9.412602 4.570750 17.131557 8.938890 -2.306399 -11.360651 -5.211829 -2.462630 32.097825 -2.497740 -5.265340 -7.250020 -7.464443 -23.014954 5.065377 -33.078532 -35.396726 7.177147 15.548105 -28.388537 -4.608080 -3.842866 3.032690 -0.079270 0.217360 -0.111330 0.173550 -9.780933 27.162718 4.069586 -12.642416 24.542910 -2.273277 -18.654836 8.282290 -2.493034 2.549326 -1.678051 -0.050570 0.228290 -0.062460 0.029360 
-0.945430 16.346950 -2.027620 -1.637792 9.314783 -2.345610 -15.112027 13.766021 2.698619 9.386147 -1.959607 -16.794593 -2.658530 6.048569 22.197657 -0.399037 4.420243 2.927331 0.454940 0.498420 0.201940 18.066698 -11.959911 2.015490 -19.131107 -0.054711 -15.362074 1.368016 -5.819361 24.208309 -0.080176 -4.373742 2.641925 0.497240 0.213940 0.131750 -3.622618 -1.027595 -7.105753 10.033889 -0.100938 11.659514 -9.446175 3.644062 17.438470 8.338101 -1.861921 -11.250430 -4.750228 -2.133737 32.868038 -2.576810 -4.488680 -7.769670 -7.464443 -25.281541 4.628873 -26.720536 -37.687892 5.390125 23.647185 -26.536409 -6.748533 -3.871632 3.015143 -0.051520 0.209500 -0.090410 0.161240 -8.790233 28.324624 4.317525 -13.145201 24.429650 -3.659800 -21.725942 7.803447 -2.993749 2.559177 -1.713637 -0.055980 0.230360 -0.063560 0.008300 
